# xmcd CD database file
#
# Track frame offsets:
#	150
#	9612
#	18724
#	27191
#	38398
#	49664
#	57396
#	65964
#	77231
#	89737
#	100973
#	112255
#	123048
#	137469
#	148491
#	160205
#	177814
#	188437
#
# Disc length: 2700 seconds
#
# Revision: 0
# Processed by: cddbd v1.5.2PL0 Copyright (c) Steve Scherf et al.
# Submitted via: CDex 1.70beta2
#
DISCID=fa0a8a12
DTITLE=Time Life Music - Classic Country - Sing Me A Hank Williams Song
DYEAR=2006
DGENRE=Country
TTITLE0=George Jones - Why Don't You Love Me
TTITLE1=Charley Pride - Honky Tonk Blues
TTITLE2=Conway Twitty and His Lonely Blue Boys - Jamalaya (On The Bayou)
TTITLE3=Patsy Cline - Half As Much
TTITLE4=Porter Wagoner - Settin' The Woods On Fire
TTITLE5=Johnny Cash - Hey Good Lookin'
TTITLE6=Don Gibbson - Baby, We're Really In Love
TTITLE7=Mel Tillis - Honky Tonkin'
TTITLE8=Marty Robbins - I'm So Lonesome I Could Cry
TTITLE9=Ray Price - Take These Chains From The Heart
TTITLE10=George Jones - You Win Again
TTITLE11=Sonny James - Lovesick Blues
TTITLE12=Willie Nelson - Cold, Cold Heart
TTITLE13=Elvis Presley - Your Cheatin' Heart
TTITLE14=Johnny Horton - Lost Highway
TTITLE15=Hank Snow - Wedding Bells
TTITLE16=The Browns (Feat. Jim Ed Brown) - Mansion On The Hill
TTITLE17=Charley Pride - Kaw-Liga
EXTD=YEAR: 2006
EXTT0=
EXTT1=
EXTT2=
EXTT3=
EXTT4=
EXTT5=
EXTT6=
EXTT7=
EXTT8=
EXTT9=
EXTT10=
EXTT11=
EXTT12=
EXTT13=
EXTT14=
EXTT15=
EXTT16=
EXTT17=
PLAYORDER=
